<svg xmlns="http://www.w3.org/2000/svg" xmlns:xlink="http://www.w3.org/1999/xlink" viewBox="0 0 664 339" width="664" height="339"><rect width="100%" height="100%" fill="rgb(209,245,87)"></rect><path d="M 146.000,166.500 C 144.751,162.391 144.500,162.500 143.000,158.500" stroke-width="5.170" stroke="rgb(187,88,205)" fill="none" stroke-linecap="round"></path><path d="M 143.000,158.500 C 140.296,152.332 140.251,152.391 137.000,146.500" stroke-width="3.487" stroke="rgb(187,88,205)" fill="none" stroke-linecap="round"></path><path d="M 137.000,146.500 C 133.979,140.616 133.796,140.832 130.000,135.500" stroke-width="3.269" stroke="rgb(187,88,205)" fill="none" stroke-linecap="round"></path><path d="M 130.000,135.500 C 127.148,130.436 126.979,131.616 123.000,128.500" stroke-width="3.410" stroke="rgb(187,88,205)" fill="none" stroke-linecap="round"></path><path d="M 123.000,128.500 C 118.076,126.578 119.648,126.936 115.000,128.500" stroke-width="4.304" stroke="rgb(187,88,205)" fill="none" stroke-linecap="round"></path><path d="M 115.000,128.500 C 110.419,133.128 110.076,131.578 107.000,138.500" stroke-width="3.474" stroke="rgb(187,88,205)" fill="none" stroke-linecap="round"></path><path d="M 107.000,138.500 C 103.398,144.266 103.419,144.128 101.000,150.500" stroke-width="3.173" stroke="rgb(187,88,205)" fill="none" stroke-linecap="round"></path><path d="M 101.000,150.500 C 98.553,157.399 98.398,157.266 97.000,164.500" stroke-width="3.071" stroke="rgb(187,88,205)" fill="none" stroke-linecap="round"></path><path d="M 97.000,164.500 C 95.006,173.445 95.053,173.399 94.000,182.500" stroke-width="2.811" stroke="rgb(187,88,205)" fill="none" stroke-linecap="round"></path><path d="M 94.000,182.500 C 93.580,191.505 93.006,191.445 93.000,200.500" stroke-width="2.754" stroke="rgb(187,88,205)" fill="none" stroke-linecap="round"></path><path d="M 93.000,200.500 C 92.342,206.994 92.580,207.005 92.000,213.500" stroke-width="2.987" stroke="rgb(187,88,205)" fill="none" stroke-linecap="round"></path><path d="M 92.000,213.500 C 90.274,220.926 91.842,216.494 92.000,219.500" stroke-width="3.720" stroke="rgb(187,88,205)" fill="none" stroke-linecap="round"></path><path d="M 92.000,219.500 C 104.203,207.571 101.774,211.426 115.000,194.500" stroke-width="3.729" stroke="rgb(187,88,205)" fill="none" stroke-linecap="round"></path><path d="M 115.000,194.500 C 122.601,184.070 123.203,184.571 130.000,173.500" stroke-width="2.465" stroke="rgb(187,88,205)" fill="none" stroke-linecap="round"></path><path d="M 130.000,173.500 C 136.253,163.817 136.601,164.070 143.000,154.500" stroke-width="2.412" stroke="rgb(187,88,205)" fill="none" stroke-linecap="round"></path><path d="M 143.000,154.500 C 146.838,149.355 146.753,149.317 151.000,144.500" stroke-width="2.919" stroke="rgb(187,88,205)" fill="none" stroke-linecap="round"></path><path d="M 151.000,144.500 C 153.654,139.032 152.838,142.355 155.000,140.500" stroke-width="3.687" stroke="rgb(187,88,205)" fill="none" stroke-linecap="round"></path><path d="M 155.000,140.500 C 157.589,149.057 159.154,145.032 162.000,156.500" stroke-width="4.197" stroke="rgb(187,88,205)" fill="none" stroke-linecap="round"></path><path d="M 162.000,156.500 C 165.599,163.128 165.589,162.557 171.000,167.500" stroke-width="3.334" stroke="rgb(187,88,205)" fill="none" stroke-linecap="round"></path><path d="M 171.000,167.500 C 176.590,172.053 176.099,171.628 183.000,173.500" stroke-width="3.137" stroke="rgb(187,88,205)" fill="none" stroke-linecap="round"></path><path d="M 183.000,173.500 C 192.514,174.731 192.090,175.553 202.000,174.500" stroke-width="2.783" stroke="rgb(187,88,205)" fill="none" stroke-linecap="round"></path><path d="M 202.000,174.500 C 213.130,174.312 213.014,174.231 224.000,172.500" stroke-width="2.538" stroke="rgb(187,88,205)" fill="none" stroke-linecap="round"></path><path d="M 224.000,172.500 C 236.907,169.027 237.130,170.312 250.000,166.500" stroke-width="2.221" stroke="rgb(187,88,205)" fill="none" stroke-linecap="round"></path><path d="M 250.000,166.500 C 265.414,163.141 265.407,163.527 281.000,161.500" stroke-width="2.044" stroke="rgb(187,88,205)" fill="none" stroke-linecap="round"></path><path d="M 281.000,161.500 C 294.081,159.725 293.914,160.141 307.000,160.500" stroke-width="2.166" stroke="rgb(187,88,205)" fill="none" stroke-linecap="round"></path><path d="M 307.000,160.500 C 319.303,161.381 319.081,161.225 331.000,164.500" stroke-width="2.211" stroke="rgb(187,88,205)" fill="none" stroke-linecap="round"></path><path d="M 331.000,164.500 C 341.349,168.950 341.803,167.381 352.000,172.500" stroke-width="2.355" stroke="rgb(187,88,205)" fill="none" stroke-linecap="round"></path><path d="M 352.000,172.500 C 363.926,176.280 363.849,176.450 376.000,179.500" stroke-width="2.300" stroke="rgb(187,88,205)" fill="none" stroke-linecap="round"></path><path d="M 376.000,179.500 C 386.374,182.865 386.426,182.280 397.000,184.500" stroke-width="2.365" stroke="rgb(187,88,205)" fill="none" stroke-linecap="round"></path><path d="M 397.000,184.500 C 406.000,185.500 405.874,185.865 415.000,185.500" stroke-width="2.609" stroke="rgb(187,88,205)" fill="none" stroke-linecap="round"></path><path d="M 415.000,185.500 C 424.215,186.214 424.000,185.500 433.000,184.500" stroke-width="2.693" stroke="rgb(187,88,205)" fill="none" stroke-linecap="round"></path><path d="M 433.000,184.500 C 444.983,182.151 444.715,182.214 456.000,177.500" stroke-width="2.365" stroke="rgb(187,88,205)" fill="none" stroke-linecap="round"></path><path d="M 456.000,177.500 C 467.905,172.748 467.483,172.651 478.000,165.500" stroke-width="2.300" stroke="rgb(187,88,205)" fill="none" stroke-linecap="round"></path><path d="M 478.000,165.500 C 488.360,158.738 487.405,158.748 495.000,149.500" stroke-width="2.349" stroke="rgb(187,88,205)" fill="none" stroke-linecap="round"></path><path d="M 495.000,149.500 C 499.939,141.720 499.860,142.738 501.000,133.500" stroke-width="2.597" stroke="rgb(187,88,205)" fill="none" stroke-linecap="round"></path><path d="M 501.000,133.500 C 501.417,125.483 501.939,126.220 499.000,118.500" stroke-width="2.851" stroke="rgb(187,88,205)" fill="none" stroke-linecap="round"></path><path d="M 499.000,118.500 C 496.325,112.134 496.917,112.483 492.000,107.500" stroke-width="3.076" stroke="rgb(187,88,205)" fill="none" stroke-linecap="round"></path><path d="M 492.000,107.500 C 488.705,104.355 489.325,104.634 485.000,103.500" stroke-width="3.513" stroke="rgb(187,88,205)" fill="none" stroke-linecap="round"></path><path d="M 485.000,103.500 C 481.335,102.788 482.205,102.855 479.000,104.500" stroke-width="3.931" stroke="rgb(187,88,205)" fill="none" stroke-linecap="round"></path><path d="M 479.000,104.500 C 473.824,108.994 473.835,108.288 470.000,114.500" stroke-width="3.342" stroke="rgb(187,88,205)" fill="none" stroke-linecap="round"></path><path d="M 470.000,114.500 C 461.590,127.261 461.324,126.994 454.000,140.500" stroke-width="2.214" stroke="rgb(187,88,205)" fill="none" stroke-linecap="round"></path><path d="M 454.000,140.500 C 440.585,165.047 440.090,164.761 427.000,189.500" stroke-width="1.494" stroke="rgb(187,88,205)" fill="none" stroke-linecap="round"></path><path d="M 427.000,189.500 C 413.734,214.943 413.085,214.547 399.000,239.500" stroke-width="1.343" stroke="rgb(187,88,205)" fill="none" stroke-linecap="round"></path><path d="M 399.000,239.500 C 387.696,260.905 386.734,259.943 373.000,279.500" stroke-width="1.391" stroke="rgb(187,88,205)" fill="none" stroke-linecap="round"></path><path d="M 373.000,279.500 C 362.976,292.948 363.196,291.905 350.000,301.500" stroke-width="1.745" stroke="rgb(187,88,205)" fill="none" stroke-linecap="round"></path><path d="M 128.000,154.500 C 134.500,154.500 134.500,154.500 141.000,154.500" stroke-width="4.884" stroke="rgb(187,88,205)" fill="none" stroke-linecap="round"></path><path d="M 141.000,154.500 C 203.502,154.788 203.500,154.500 266.000,154.500" stroke-width="1.125" stroke="rgb(187,88,205)" fill="none" stroke-linecap="round"></path><path d="M 266.000,154.500 C 312.010,154.468 312.002,154.288 358.000,153.500" stroke-width="1.125" stroke="rgb(187,88,205)" fill="none" stroke-linecap="round"></path><path d="M 358.000,153.500 C 407.120,153.682 407.010,152.468 456.000,150.500" stroke-width="1.125" stroke="rgb(187,88,205)" fill="none" stroke-linecap="round"></path><path d="M 456.000,150.500 C 491.861,148.499 491.620,148.182 527.000,142.500" stroke-width="1.125" stroke="rgb(187,88,205)" fill="none" stroke-linecap="round"></path><path d="M 527.000,142.500 C 553.146,136.522 553.361,137.999 579.000,129.500" stroke-width="1.188" stroke="rgb(187,88,205)" fill="none" stroke-linecap="round"></path><path d="M 128.000,230.500 C 133.802,233.561 134.000,232.500 140.000,234.500" stroke-width="4.665" stroke="rgb(187,88,205)" fill="none" stroke-linecap="round"></path><path d="M 140.000,234.500 C 150.528,236.024 150.302,236.061 161.000,235.500" stroke-width="2.839" stroke="rgb(187,88,205)" fill="none" stroke-linecap="round"></path><path d="M 161.000,235.500 C 180.518,233.665 180.528,234.524 200.000,231.500" stroke-width="1.934" stroke="rgb(187,88,205)" fill="none" stroke-linecap="round"></path><path d="M 200.000,231.500 C 220.969,228.701 221.018,229.165 242.000,226.500" stroke-width="1.697" stroke="rgb(187,88,205)" fill="none" stroke-linecap="round"></path><path d="M 242.000,226.500 C 263.985,224.313 263.969,224.201 286.000,222.500" stroke-width="1.551" stroke="rgb(187,88,205)" fill="none" stroke-linecap="round"></path><path d="M 286.000,222.500 C 306.474,220.289 306.485,220.813 327.000,219.500" stroke-width="1.616" stroke="rgb(187,88,205)" fill="none" stroke-linecap="round"></path><path d="M 327.000,219.500 C 345.500,219.500 345.474,218.789 364.000,219.500" stroke-width="1.721" stroke="rgb(187,88,205)" fill="none" stroke-linecap="round"></path><path d="M 366.000,225.500 C 363.500,226.000 363.500,226.000 361.000,226.500" stroke-width="4.335" stroke="rgb(187,88,205)" fill="none" stroke-linecap="round"></path><path d="M 361.000,226.500 C 356.028,227.662 356.000,227.500 351.000,228.500" stroke-width="3.727" stroke="rgb(187,88,205)" fill="none" stroke-linecap="round"></path><path d="M 351.000,228.500 C 343.996,229.471 344.028,229.662 337.000,230.500" stroke-width="3.242" stroke="rgb(187,88,205)" fill="none" stroke-linecap="round"></path><path d="M 337.000,230.500 C 327.002,232.010 326.996,231.971 317.000,233.500" stroke-width="2.672" stroke="rgb(187,88,205)" fill="none" stroke-linecap="round"></path><path d="M 317.000,233.500 C 303.559,236.047 303.502,235.510 290.000,237.500" stroke-width="2.291" stroke="rgb(187,88,205)" fill="none" stroke-linecap="round"></path><path d="M 290.000,237.500 C 275.481,238.273 275.559,239.047 261.000,239.500" stroke-width="2.136" stroke="rgb(187,88,205)" fill="none" stroke-linecap="round"></path><path d="M 261.000,239.500 C 245.979,240.809 245.981,240.773 231.000,242.500" stroke-width="2.002" stroke="rgb(187,88,205)" fill="none" stroke-linecap="round"></path><path d="M 231.000,242.500 C 214.944,244.138 214.979,244.309 199.000,246.500" stroke-width="1.959" stroke="rgb(187,88,205)" fill="none" stroke-linecap="round"></path><path d="M 199.000,246.500 C 187.960,248.308 187.944,248.138 177.000,250.500" stroke-width="2.266" stroke="rgb(187,88,205)" fill="none" stroke-linecap="round"></path><path d="M 177.000,250.500 C 170.511,252.053 170.460,251.808 164.000,253.500" stroke-width="2.773" stroke="rgb(187,88,205)" fill="none" stroke-linecap="round"></path><path d="M 89.000,234.500 C 91.787,246.264 92.500,246.000 96.000,257.500" stroke-width="5.025" stroke="rgb(68,169,59)" fill="none" stroke-linecap="round"></path><path d="M 96.000,257.500 C 99.721,271.178 100.787,270.264 107.000,282.500" stroke-width="2.522" stroke="rgb(68,169,59)" fill="none" stroke-linecap="round"></path><path d="M 107.000,282.500 C 113.994,293.015 113.221,292.178 123.000,299.500" stroke-width="2.414" stroke="rgb(68,169,59)" fill="none" stroke-linecap="round"></path><path d="M 123.000,299.500 C 127.724,301.255 126.494,302.015 132.000,300.500" stroke-width="3.174" stroke="rgb(68,169,59)" fill="none" stroke-linecap="round"></path><path d="M 132.000,300.500 C 136.717,299.397 136.224,299.755 140.000,296.500" stroke-width="3.466" stroke="rgb(68,169,59)" fill="none" stroke-linecap="round"></path><path d="M 140.000,296.500 C 144.902,291.286 145.217,291.897 149.000,285.500" stroke-width="3.174" stroke="rgb(68,169,59)" fill="none" stroke-linecap="round"></path><path d="M 149.000,285.500 C 153.000,279.000 153.402,279.286 157.000,272.500" stroke-width="3.024" stroke="rgb(68,169,59)" fill="none" stroke-linecap="round"></path><path d="M 157.000,272.500 C 161.000,266.000 161.000,266.000 165.000,259.500" stroke-width="2.921" stroke="rgb(68,169,59)" fill="none" stroke-linecap="round"></path><path d="M 165.000,259.500 C 169.032,253.019 169.000,253.000 173.000,246.500" stroke-width="2.951" stroke="rgb(68,169,59)" fill="none" stroke-linecap="round"></path><path d="M 173.000,246.500 C 177.581,235.791 176.032,241.519 179.000,236.500" stroke-width="3.210" stroke="rgb(68,169,59)" fill="none" stroke-linecap="round"></path><path d="M 179.000,236.500 C 179.570,243.041 180.581,237.291 179.000,249.500" stroke-width="4.125" stroke="rgb(68,169,59)" fill="none" stroke-linecap="round"></path><path d="M 179.000,249.500 C 176.930,259.959 178.070,260.041 176.000,270.500" stroke-width="2.837" stroke="rgb(68,169,59)" fill="none" stroke-linecap="round"></path><path d="M 176.000,270.500 C 173.725,279.275 175.430,276.959 176.000,283.500" stroke-width="3.074" stroke="rgb(68,169,59)" fill="none" stroke-linecap="round"></path><path d="M 176.000,283.500 C 179.817,284.673 177.225,285.775 183.000,283.500" stroke-width="4.300" stroke="rgb(68,169,59)" fill="none" stroke-linecap="round"></path><path d="M 183.000,283.500 C 188.684,279.246 189.317,281.173 195.000,276.500" stroke-width="3.308" stroke="rgb(68,169,59)" fill="none" stroke-linecap="round"></path><path d="M 195.000,276.500 C 200.417,274.381 200.184,274.246 206.000,273.500" stroke-width="3.349" stroke="rgb(68,169,59)" fill="none" stroke-linecap="round"></path><path d="M 206.000,273.500 C 210.265,272.504 209.917,272.881 214.000,273.500" stroke-width="3.669" stroke="rgb(68,169,59)" fill="none" stroke-linecap="round"></path><path d="M 214.000,273.500 C 217.992,274.893 217.765,274.504 221.000,277.500" stroke-width="3.770" stroke="rgb(68,169,59)" fill="none" stroke-linecap="round"></path><path d="M 221.000,277.500 C 224.855,282.137 225.492,281.393 229.000,286.500" stroke-width="3.359" stroke="rgb(68,169,59)" fill="none" stroke-linecap="round"></path><path d="M 229.000,286.500 C 233.978,292.636 234.355,292.137 240.000,297.500" stroke-width="3.052" stroke="rgb(68,169,59)" fill="none" stroke-linecap="round"></path><path d="M 240.000,297.500 C 246.918,303.877 246.978,303.136 255.000,307.500" stroke-width="2.819" stroke="rgb(68,169,59)" fill="none" stroke-linecap="round"></path><path d="M 255.000,307.500 C 261.927,309.524 261.418,310.377 269.000,310.500" stroke-width="2.922" stroke="rgb(68,169,59)" fill="none" stroke-linecap="round"></path><path d="M 269.000,310.500 C 276.558,311.980 276.427,311.524 284.000,311.500" stroke-width="2.966" stroke="rgb(68,169,59)" fill="none" stroke-linecap="round"></path><path d="M 284.000,311.500 C 292.010,310.054 292.058,310.980 300.000,308.500" stroke-width="2.901" stroke="rgb(68,169,59)" fill="none" stroke-linecap="round"></path><path d="M 300.000,308.500 C 309.919,305.970 310.010,306.554 320.000,304.500" stroke-width="2.587" stroke="rgb(68,169,59)" fill="none" stroke-linecap="round"></path><path d="M 320.000,304.500 C 333.963,302.310 333.919,302.470 348.000,301.500" stroke-width="2.239" stroke="rgb(68,169,59)" fill="none" stroke-linecap="round"></path><path d="M 348.000,301.500 C 360.000,301.500 359.963,300.810 372.000,301.500" stroke-width="2.304" stroke="rgb(68,169,59)" fill="none" stroke-linecap="round"></path><path d="M 372.000,301.500 C 381.516,301.173 381.500,301.500 391.000,301.500" stroke-width="2.485" stroke="rgb(68,169,59)" fill="none" stroke-linecap="round"></path><path d="M 391.000,301.500 C 396.016,301.877 396.016,301.673 401.000,302.500" stroke-width="3.137" stroke="rgb(68,169,59)" fill="none" stroke-linecap="round"></path><path d="M 401.000,302.500 C 405.536,305.497 404.016,302.877 407.000,303.500" stroke-width="4.393" stroke="rgb(68,169,59)" fill="none" stroke-linecap="round"></path><path d="M 407.000,303.500 C 411.113,295.707 411.036,297.997 412.000,287.500" stroke-width="3.907" stroke="rgb(68,169,59)" fill="none" stroke-linecap="round"></path><path d="M 412.000,287.500 C 413.196,276.683 413.113,277.207 411.000,266.500" stroke-width="2.816" stroke="rgb(68,169,59)" fill="none" stroke-linecap="round"></path><path d="M 411.000,266.500 C 407.810,250.625 407.696,251.183 401.000,236.500" stroke-width="2.162" stroke="rgb(68,169,59)" fill="none" stroke-linecap="round"></path><path d="M 401.000,236.500 C 393.827,222.395 394.310,222.625 384.000,210.500" stroke-width="1.981" stroke="rgb(68,169,59)" fill="none" stroke-linecap="round"></path><path d="M 384.000,210.500 C 375.028,197.881 374.827,199.395 363.000,190.500" stroke-width="2.048" stroke="rgb(68,169,59)" fill="none" stroke-linecap="round"></path><path d="M 363.000,190.500 C 351.017,182.276 353.028,184.381 340.000,183.500" stroke-width="2.238" stroke="rgb(68,169,59)" fill="none" stroke-linecap="round"></path><path d="M 340.000,183.500 C 326.590,186.910 328.517,184.776 318.000,195.500" stroke-width="2.205" stroke="rgb(68,169,59)" fill="none" stroke-linecap="round"></path><path d="M 318.000,195.500 C 307.404,208.693 306.590,206.910 300.000,223.500" stroke-width="1.984" stroke="rgb(68,169,59)" fill="none" stroke-linecap="round"></path><path d="M 300.000,223.500 C 293.173,240.383 291.904,239.693 287.000,257.500" stroke-width="1.790" stroke="rgb(68,169,59)" fill="none" stroke-linecap="round"></path><path d="M 287.000,257.500 C 282.500,271.000 282.173,270.883 278.000,284.500" stroke-width="1.998" stroke="rgb(68,169,59)" fill="none" stroke-linecap="round"></path></svg>